<?xml version="1.0" encoding="utf-8"?>
<!-- Generator: Adobe Illustrator 16.0.0, SVG Export Plug-In . SVG Version: 6.00 Build 0)  -->
<!DOCTYPE svg PUBLIC "-//W3C//DTD SVG 1.1//EN" "http://www.w3.org/Graphics/SVG/1.1/DTD/svg11.dtd">
<svg version="1.1" id="图层_1" xmlns="http://www.w3.org/2000/svg" xmlns:xlink="http://www.w3.org/1999/xlink" x="0px" y="0px"
	 width="200px" height="200px" viewBox="0 0 200 200" enable-background="new 0 0 200 200" xml:space="preserve">
<g>
	<g>
		<path d="M54.292,18.124c-6.868,8.094-4.213,12.724,0,12.767C58.617,30.933,61.281,26.218,54.292,18.124z"/>
		<path d="M101.104,18.124c-6.86,8.094-4.213,12.724,0,12.767C105.428,30.933,108.092,26.218,101.104,18.124z"/>
		<path d="M147.914,18.124c-6.859,8.094-4.213,12.724,0,12.767C152.238,30.933,154.902,26.218,147.914,18.124z"/>
		<path d="M50.078,35.956h8.512V70h-8.512V35.956z"/>
		<path d="M144.078,35.956h8.512V70h-8.512V35.956z"/>
		<path d="M96.078,35.956h8.512V70h-8.512V35.956z"/>
	</g>
	<path d="M19.333,96.047v74.242c0,3.936,7.574,11.587,16.945,11.587h128.948c9.361,0,16.945-7.677,16.945-11.587V96.047
		c0-14.949-7.574-22.602-16.945-22.602H36.279C26.917,73.445,19.333,81.123,19.333,96.047z M172.086,163.203
		c0,4.74-3.805,8.588-8.436,8.588H37.853c-4.646,0-8.434-3.822-8.434-8.588V126.5c3.574,2.68,5.289,3.253,8.963,5.09
		c2.854,0.983,4.126,1.809,8.744,1.901c8.182,0.165,20.846-16.416,25.107-15.975c2.854,0.296,8.464,6.594,12.844,8.955
		c6.051,3.937,9.356,6.681,14.949,7.02c2.715,0.165,8.129,0.4,17.083-6.527c0.613-0.468,0.613-0.468,1.209-0.937
		c6.332-4.868,8.041-8.367,13.027-8.444c4.264-0.066,7.807,5.051,12.947,8.83c1.355,1.338,7.063,5.865,11.098,7.145
		c1.934,0.613,4.166,0.688,7.314-0.886c2.699-1.362,6.529-3.734,9.381-5.845V163.203z M172.086,91.323v24.593
		c-1.191,1.029-11.326,10.417-15.84,9.852c-3.021-0.378-8.139-5.889-10.426-8.071c-8.598-7.014-10.064-8.705-14.566-8.952
		c-5.141-0.281-6.686,2.452-14.473,8.453c-0.621,0.477-0.621,0.477-1.227,0.953c-7.414,5.735-10.791,7.617-14.74,7.617
		c-3.686,0-11.457-5.594-14.333-7.593c-8.732-6.919-10.018-9.246-14.524-9.431c-4.495-0.183-7.427,3.452-15.29,10.354
		c-0.783,0.689-6.674,6.882-11.115,6.669c-5.338-0.255-9.248-3.792-12.941-6.779c-1.09-0.886-2.153-1.805-3.191-2.741V91.323
		c0-4.741,3.805-8.579,8.434-8.579H163.65C168.299,82.744,172.086,86.565,172.086,91.323z"/>
</g>
</svg>
