<?xml version="1.0" encoding="utf-8"?>
<!-- Generator: Adobe Illustrator 16.0.0, SVG Export Plug-In . SVG Version: 6.00 Build 0)  -->
<!DOCTYPE svg PUBLIC "-//W3C//DTD SVG 1.1//EN" "http://www.w3.org/Graphics/SVG/1.1/DTD/svg11.dtd">
<svg version="1.1" id="图层_1" xmlns="http://www.w3.org/2000/svg" xmlns:xlink="http://www.w3.org/1999/xlink" x="0px" y="0px"
	 width="200px" height="200px" viewBox="0 0 200 200" enable-background="new 0 0 200 200" xml:space="preserve">
<path d="M115.177,55.282c2.326,2.326,3.157,3.323,2.824,5.815c-0.498,3.323-4.818,7.809-6.812,9.637
	c-2.16,1.828-2.327,5.151-0.499,7.311c0.997,1.163,2.326,1.828,3.987,1.828c1.164,0,2.493-0.499,3.323-1.329
	c1.496-1.33,8.974-8.142,10.136-15.785c1.163-7.644-2.658-11.631-5.482-14.622c-1.662-1.661-2.659-2.824-2.991-4.486
	c-0.498-3.157,0.166-6.48,2.16-9.471c1.661-2.492,3.489-3.988,3.489-3.988c2.16-1.662,2.658-4.984,0.996-7.144
	c-0.83-1.164-1.993-1.828-3.488-1.994c-1.33-0.167-2.658,0.166-3.822,0.997c-0.498,0.332-12.129,9.471-9.637,23.594
	C110.192,50.131,113.017,53.122,115.177,55.282z"/>
<path d="M91.085,55.282c2.326,2.326,3.156,3.323,2.824,5.815c-0.498,3.323-4.818,7.809-6.813,9.637
	c-2.16,1.828-2.326,5.151-0.499,7.311c0.997,1.163,2.326,1.828,3.988,1.828c1.163,0,2.492-0.499,3.323-1.329
	c1.496-1.33,8.973-8.142,10.135-15.785c1.164-7.644-2.658-11.631-5.482-14.622c-1.828-1.827-2.658-2.824-2.991-4.486
	c-0.498-3.157,0.166-6.48,2.16-9.471c1.662-2.492,3.489-3.988,3.489-3.988c2.16-1.662,2.658-4.984,0.997-7.144
	c-0.831-1.164-1.993-1.828-3.489-1.994c-1.329-0.167-2.658,0.166-3.821,0.997c-0.499,0.332-12.13,9.471-9.637,23.594
	C86.267,50.131,89.091,53.122,91.085,55.282z"/>
<path d="M183.467,98.814c-3.323-3.655-8.143-5.649-13.459-5.649c-3.987,0-7.643,1.163-10.966,3.157v-8.474
	c0-2.824-2.326-5.15-5.151-5.15H36.752c-2.824,0-5.151,2.326-5.151,5.15v35.89c0,10.301,1.828,19.439,5.317,27.416
	c2.99,6.479,6.979,12.129,12.129,16.615c8.641,7.643,17.114,9.803,18.111,10.135c0.332,0.166,0.831,0.166,1.163,0.166h48.85
	c0.332,0,0.665,0,0.997-0.166c0.499,0,10.468-1.994,20.438-9.637c5.482-4.154,9.969-9.305,13.292-15.119
	c12.462-2.162,35.225-15.287,36.72-38.715C189.116,108.451,187.288,102.803,183.467,98.814z M159.042,124.402v-8.639
	c0.166-0.5,0.166-0.998,0.166-1.496c0-5.982,4.818-10.801,10.8-10.801c2.659,0,4.818,0.996,6.48,2.824
	c1.661,1.994,2.326,4.818,1.994,7.811c-2.327,15.451-13.293,23.594-21.435,27.082C158.377,135.867,159.042,130.385,159.042,124.402z
	 M148.74,92.999v31.403c0,8.141-1.495,15.287-4.486,21.6c0,0.166-0.166,0.166-0.166,0.334c-0.166,0.33-0.333,0.498-0.333,0.83
	c-2.657,4.984-6.313,9.471-10.965,12.959c-6.979,5.318-14.123,7.311-15.951,7.811H69.151c-1.661-0.5-7.311-2.492-13.126-7.645
	c-3.987-3.654-7.311-8.141-9.637-13.291c-2.991-6.646-4.486-14.289-4.486-23.096V92.999H148.74z"/>
<path d="M66.992,55.282c2.326,2.326,3.157,3.323,2.824,5.815c-0.498,3.323-4.818,7.809-6.812,9.637
	c-2.161,1.828-2.327,5.151-0.499,7.311c0.997,1.163,2.326,1.828,3.822,1.828c1.162,0,2.492-0.499,3.322-1.329
	c1.496-1.33,8.973-8.142,10.135-15.785c1.164-7.644-2.657-11.631-5.482-14.622c-1.661-1.661-2.658-2.824-2.99-4.486
	c-0.499-3.157,0.165-6.48,2.159-9.471c1.662-2.492,3.49-3.988,3.49-3.988c2.159-1.662,2.658-4.984,0.997-7.144
	c-0.831-1.164-1.995-1.828-3.49-1.994c-1.329-0.167-2.658,0.166-3.821,0.997c-0.498,0.332-12.129,9.471-9.637,23.594
	C62.174,50.131,64.998,53.122,66.992,55.282z"/>
</svg>
