<?xml version="1.0" encoding="utf-8"?>
<!-- Generator: Adobe Illustrator 16.0.0, SVG Export Plug-In . SVG Version: 6.00 Build 0)  -->
<!DOCTYPE svg PUBLIC "-//W3C//DTD SVG 1.1//EN" "http://www.w3.org/Graphics/SVG/1.1/DTD/svg11.dtd">
<svg version="1.1" id="图层_1" xmlns="http://www.w3.org/2000/svg" xmlns:xlink="http://www.w3.org/1999/xlink" viewBox="0 0 200 200" enable-background="new 0 0 200 200" xml:space="preserve">
<path d="M10.202,44.498c-0.002,5.077,4.112,9.195,9.188,9.197c5.078,0.002,9.194-4.111,9.196-9.189c0-0.002,0-0.005,0-0.008
	c0-5.077-4.114-9.193-9.192-9.193C14.316,35.305,10.202,39.421,10.202,44.498L10.202,44.498z"/>
<path d="M91.17,27.526c0,5.077,4.117,9.193,9.194,9.193c5.076,0,9.192-4.116,9.192-9.193c0-5.077-4.116-9.193-9.192-9.193
	C95.287,18.333,91.17,22.45,91.17,27.526z"/>
<path d="M173.555,58.996c-1.769-1.061-4.242-0.708-5.657,0.352l-35.358,30.055l-28.641-44.197c-1.768-2.475-6.716-2.475-8.485,0
	L67.127,89.757L31.769,59.702c-1.061-0.707-2.121-1.061-3.182-1.061c-0.707,0-1.767,0.354-2.474,0.706
	c-1.769,1.061-2.83,3.183-2.476,5.304l15.911,90.871c0.354,2.474,2.476,4.243,4.949,4.243h110.67c2.477,0,4.598-1.77,4.95-4.243
	l15.911-91.223C176.383,62.178,175.677,60.057,173.555,58.996L173.555,58.996z M150.926,149.511H48.741L35.66,76.32l28.992,24.751
	c1.061,1.061,2.476,1.415,3.891,1.061c1.413-0.354,2.828-1.061,3.534-2.122l27.579-42.784l27.58,42.784
	c0.708,1.061,2.121,2.122,3.536,2.122s2.828-0.354,3.889-1.061l28.994-24.751L150.926,149.511L150.926,149.511z"/>
<path d="M171.079,44.145c-0.004,5.076,4.109,9.196,9.187,9.199c5.078,0.004,9.196-4.108,9.2-9.186c0-0.004,0-0.009,0-0.013
	c0.004-5.078-4.11-9.196-9.187-9.2c-5.077-0.004-9.195,4.109-9.2,9.186C171.079,44.136,171.079,44.14,171.079,44.145z"/>
<path d="M155.168,171.434H44.498c-2.828,0-4.949,2.121-4.949,4.949s2.121,4.949,4.949,4.949h110.67c2.828,0,4.95-2.121,4.95-4.949
	S157.996,171.434,155.168,171.434z"/>
</svg>
