<?xml version="1.0" encoding="utf-8"?>
<!-- Generator: Adobe Illustrator 16.0.0, SVG Export Plug-In . SVG Version: 6.00 Build 0)  -->
<!DOCTYPE svg PUBLIC "-//W3C//DTD SVG 1.1//EN" "http://www.w3.org/Graphics/SVG/1.1/DTD/svg11.dtd">
<svg version="1.1" id="图层_1" xmlns="http://www.w3.org/2000/svg" xmlns:xlink="http://www.w3.org/1999/xlink" x="0px" y="0px"
	 width="200px" height="200px" viewBox="0 0 200 200" enable-background="new 0 0 200 200" xml:space="preserve">
<path d="M154.842,63.115h-21.918c2.813-3.571,4.493-8.074,4.493-12.962c0-11.571-9.413-20.985-20.985-20.985
	c-6.945,0-13.111,3.392-16.933,8.605c-3.822-5.213-9.988-8.605-16.933-8.605c-11.572,0-20.985,9.414-20.985,20.985
	c0,4.888,1.68,9.391,4.493,12.962H44.155c-7.484,0-13.572,6.088-13.572,13.572v16.878c0,6.148,4.11,11.351,9.726,13.013v46.396
	c0,7.301,5.939,13.24,13.241,13.24h44.367c0.486,0.207,1.02,0.32,1.581,0.32s1.096-0.113,1.581-0.32h44.368
	c7.301,0,13.24-5.939,13.24-13.24v-46.396c5.615-1.662,9.726-6.865,9.726-13.013V76.687
	C168.414,69.203,162.324,63.115,154.842,63.115L154.842,63.115z M116.432,37.271c7.103,0,12.881,5.778,12.881,12.881
	c0,7.098-5.771,12.874-12.867,12.881h-12.895V50.167c0-0.01,0-0.021,0-0.033C103.561,43.04,109.335,37.271,116.432,37.271
	L116.432,37.271z M82.565,37.271c7.099,0,12.875,5.773,12.881,12.871v12.892H82.58c-0.012,0-0.026,0-0.04,0
	c-7.092-0.014-12.856-5.787-12.856-12.881C69.685,43.05,75.462,37.271,82.565,37.271L82.565,37.271z M38.688,93.565V76.687
	c0-3.007,2.46-5.468,5.468-5.468h51.291v27.815H44.155C41.148,99.034,38.688,96.573,38.688,93.565L38.688,93.565z M48.413,152.975
	v-45.838h47.033v50.975H53.55C50.718,158.111,48.413,155.807,48.413,152.975L48.413,152.975z M145.447,158.111h-41.896v-50.975
	h47.033v45.838C150.584,155.807,148.279,158.111,145.447,158.111L145.447,158.111z M160.309,93.565c0,3.008-2.46,5.469-5.467,5.469
	h-51.291V71.219h51.291c3.008,0,5.467,2.461,5.467,5.468V93.565L160.309,93.565z"/>
</svg>
