<?xml version="1.0" standalone="no"?><!DOCTYPE svg PUBLIC "-//W3C//DTD SVG 1.1//EN" "http://www.w3.org/Graphics/SVG/1.1/DTD/svg11.dtd"><svg t="1523261612452" class="icon" style="" viewBox="0 0 1024 1024" version="1.1" xmlns="http://www.w3.org/2000/svg" p-id="8885" xmlns:xlink="http://www.w3.org/1999/xlink" width="1024" height="1024"><defs><style type="text/css"></style></defs><path d="M512 416c-53.024 0-96 42.976-96 96s42.976 96 96 96c53.024 0 96-42.976 96-96S565.024 416 512 416zM512 576c-35.296 0-64-28.704-64-64 0-35.296 28.704-64 64-64 35.296 0 64 28.704 64 64C576 547.296 547.296 576 512 576z" p-id="8886"></path><path d="M832 416c-53.024 0-96 42.976-96 96s42.976 96 96 96c53.024 0 96-42.976 96-96S885.024 416 832 416zM832 576c-35.296 0-64-28.704-64-64 0-35.296 28.704-64 64-64 35.296 0 64 28.704 64 64C896 547.296 867.296 576 832 576z" p-id="8887"></path><path d="M192 416c-53.024 0-96 42.976-96 96s42.976 96 96 96c53.024 0 96-42.976 96-96S245.024 416 192 416zM192 576c-35.296 0-64-28.704-64-64 0-35.296 28.704-64 64-64 35.296 0 64 28.704 64 64C256 547.296 227.296 576 192 576z" p-id="8888"></path></svg>