<?xml version="1.0" standalone="no"?><!DOCTYPE svg PUBLIC "-//W3C//DTD SVG 1.1//EN" "http://www.w3.org/Graphics/SVG/1.1/DTD/svg11.dtd"><svg t="1511151341567" class="icon" style="" viewBox="0 0 1024 1024" version="1.1" xmlns="http://www.w3.org/2000/svg" p-id="8590" xmlns:xlink="http://www.w3.org/1999/xlink" width="1024" height="1024"><defs><style type="text/css"></style></defs><path d="M512 106.666667C288.490667 106.666667 106.666667 288.490667 106.666667 512s181.824 405.333333 405.333333 405.333333 405.333333-181.824 405.333333-405.333333S735.509333 106.666667 512 106.666667z m0 768c-199.978667 0-362.666667-162.688-362.666667-362.666667S312.021333 149.333333 512 149.333333s362.666667 162.688 362.666667 362.666667-162.688 362.666667-362.666667 362.666667z" p-id="8591"></path><path d="M512 341.333333c69.376 0 128 34.197333 128 74.666667a21.333333 21.333333 0 1 0 42.666667 0c0-60.8-64.085333-109.333333-149.333334-116.373333V256a21.333333 21.333333 0 0 0-42.666666 0v43.626667c-85.248 7.018667-149.333333 55.552-149.333334 116.373333 0 65.792 74.965333 117.333333 170.666667 117.333333 69.376 0 128 34.197333 128 74.666667S581.376 682.666667 512 682.666667s-128-34.197333-128-74.666667a21.333333 21.333333 0 1 0-42.666667 0c0 60.8 64.085333 109.333333 149.333334 116.373333V768a21.333333 21.333333 0 1 0 42.666666 0v-43.626667c85.248-7.018667 149.333333-55.552 149.333334-116.373333 0-65.792-74.965333-117.333333-170.666667-117.333333-69.376 0-128-34.197333-128-74.666667s58.624-74.666667 128-74.666667z" p-id="8592"></path></svg>