<?xml version="1.0" standalone="no"?><!DOCTYPE svg PUBLIC "-//W3C//DTD SVG 1.1//EN" "http://www.w3.org/Graphics/SVG/1.1/DTD/svg11.dtd"><svg t="1511934685029" class="icon" style="" viewBox="0 0 1024 1024" version="1.1" xmlns="http://www.w3.org/2000/svg" p-id="6177" xmlns:xlink="http://www.w3.org/1999/xlink" width="128" height="128"><defs><style type="text/css"></style></defs><path d="M113.793 685.398v-348.929c0-33.682 18.085-65.075 47.295-81.967l302.129-174.466c29.215-16.886 65.478-16.886 94.586 0l302.236 174.466c29.207 16.892 47.29 48.284 47.29 81.967v348.929c0 33.682-18.080 65.074-47.29 81.967l-302.236 174.465c-29.211 16.889-65.473 16.889-94.586 0l-302.129-174.465c-29.207-16.893-47.295-48.284-47.295-81.967v0zM879.862 341.727c0-27.172-14.647-52.421-38.063-66.009l-293.13-169.211c-23.51-13.489-52.713-13.489-76.222 0l-293.126 169.21c-23.513 13.587-38.060 38.836-38.060 66.009v338.419c0 27.171 14.642 52.418 38.060 66.007l293.126 169.21c23.51 13.583 52.713 13.583 76.222 0l293.034-169.21c23.513-13.587 38.060-38.836 38.060-66.007v-338.418h0.099zM891.333 336.469z" p-id="6178"></path></svg>