<?xml version="1.0" encoding="utf-8"?>
<!-- Generator: Adobe Illustrator 16.0.0, SVG Export Plug-In . SVG Version: 6.00 Build 0)  -->
<!DOCTYPE svg PUBLIC "-//W3C//DTD SVG 1.1//EN" "http://www.w3.org/Graphics/SVG/1.1/DTD/svg11.dtd">
<svg version="1.1" id="图层_1" xmlns="http://www.w3.org/2000/svg" xmlns:xlink="http://www.w3.org/1999/xlink" x="0px" y="0px"
	 width="200px" height="200px" viewBox="0 0 200 200" enable-background="new 0 0 200 200" xml:space="preserve">
<path d="M73.312,113.688h-8.79c-2.465-0.047-4.429-2.06-4.39-4.503c-0.041-2.444,1.923-4.456,4.39-4.505h8.79
	c2.465,0.049,4.43,2.061,4.388,4.505C77.74,111.628,75.777,113.641,73.312,113.688L73.312,113.688z M104.06,113.688h-8.788
	c-2.465-0.047-4.43-2.06-4.389-4.503c-0.04-2.444,1.923-4.456,4.389-4.505h8.788c2.469,0.049,4.429,2.061,4.39,4.505
	C108.49,111.628,106.528,113.641,104.06,113.688z M134.812,113.688h-8.789c-2.466-0.047-4.43-2.06-4.389-4.503
	c-0.041-2.444,1.923-4.456,4.389-4.505h8.789c2.466,0.049,4.429,2.061,4.39,4.505C139.24,111.628,137.276,113.641,134.812,113.688z
	 M152.384,41.688c0.04-2.446-1.927-4.462-4.394-4.504h-18.999c-3.802,12.982-15.416,22.504-29.324,22.504
	c-13.91,0-25.522-9.521-29.324-22.504H51.344c-2.467,0.042-4.434,2.059-4.394,4.504V158.69c-0.039,2.441,1.928,4.452,4.394,4.496
	h18.999c3.802-12.985,15.416-22.506,29.325-22.506c13.91,0,25.523,9.521,29.323,22.506h18.998c2.469-0.044,4.437-2.057,4.396-4.502
	V41.688H152.384z M147.99,172.185h-26.356c0-12.424-9.84-22.504-21.967-22.504c-12.132,0-21.967,10.08-21.967,22.504H51.343
	c-7.279,0-13.177-6.043-13.177-13.502V41.688c0-7.461,5.899-13.503,13.177-13.503h26.356c0,12.423,9.84,22.504,21.966,22.504
	c12.133,0,21.967-10.082,21.967-22.504h26.355c7.28,0,13.179,6.043,13.179,13.503V158.69
	C161.168,166.142,155.269,172.185,147.99,172.185z"/>
</svg>
