<?xml version="1.0" encoding="utf-8"?>
<!-- Generator: Adobe Illustrator 16.0.0, SVG Export Plug-In . SVG Version: 6.00 Build 0)  -->
<!DOCTYPE svg PUBLIC "-//W3C//DTD SVG 1.1//EN" "http://www.w3.org/Graphics/SVG/1.1/DTD/svg11.dtd">
<svg version="1.1" id="图层_1" xmlns="http://www.w3.org/2000/svg" xmlns:xlink="http://www.w3.org/1999/xlink" viewBox="0 0 200 200" enable-background="new 0 0 200 200" xml:space="preserve">
<path d="M171.467,101.05c-3.438-12.137-9.892-23.229-18.704-32.04c-5.216-5.295-11.13-9.816-17.585-13.373
	l6.842-13.14c3.864-7.382-0.309-14.609-8.425-14.609H66.964c-8.114,0-12.289,7.227-8.425,14.609l6.841,13.14
	c-6.455,3.556-12.369,8.077-17.586,13.373c-8.849,8.85-15.304,19.903-18.705,32.04c-5.295,18.667-4.483,42.821,0.193,54.454
	c0.967,2.591,2.243,4.984,3.827,7.188c3.092,5.527,10.435,9.74,16.734,9.74h100.872c6.378,0,13.683-4.173,16.732-9.74
	c1.586-2.24,2.899-4.637,3.827-7.188C175.952,143.871,176.802,119.717,171.467,101.05L171.467,101.05z M66.964,36.893h66.631
	c1.466,0,1.466-0.039,0.696,1.392l-7.849,15.034H74.076L66.23,38.285C65.496,36.854,65.496,36.893,66.964,36.893z M163.237,152.065
	c-1.122,2.782-2.165,4.481-2.782,5.216l-0.541,0.813c-1.354,2.744-5.838,5.333-9.239,5.333H49.843c-3.323,0-7.846-2.629-9.237-5.333
	l-0.541-0.813c-0.619-0.734-1.662-2.472-2.782-5.216c-3.904-9.702-4.601-31.77,0.153-48.465
	c3.055-10.668,8.696-20.407,16.464-28.175c3.981-4.02,8.425-7.575,13.256-10.474c1.932-1.199,3.981-2.28,6.067-3.17l54.303,0.117
	c1.97,0.888,3.941,1.893,5.757,3.053c4.831,2.937,9.276,6.454,13.256,10.474c7.771,7.768,13.412,17.469,16.466,28.175
	C167.836,120.296,167.142,142.325,163.237,152.065z"/>
<path d="M127.833,117.99h-22.115v-13.656h22.078c2.049,0,3.717-1.859,3.717-4.135c0-2.315-1.668-4.137-3.717-4.137
	H109.55l8.459-16.426c0.797-1.896,0.303-4.133-1.289-5.348c-0.115-0.076-0.229-0.15-0.381-0.227
	c-1.744-1.025-3.906-0.381-4.893,1.365l-10.242,19.801L90.999,75.427c-0.949-1.746-3.072-2.391-4.818-1.441
	c-1.896,1.176-2.654,3.565-1.745,5.65l8.46,16.389H74.61c-2.049,0-3.717,1.859-3.717,4.135c0,2.314,1.668,4.135,3.717,4.135
	l22.23-0.076v13.619l-22.23,0.076c-2.049,0-3.717,1.857-3.717,4.135c0,2.275,1.668,4.135,3.717,4.135l22.23-0.076v24.961
	c0,2.275,2.314,4.137,4.324,4.137s4.439-1.861,4.439-4.137v-24.885h22.115c2.049,0,3.717-1.859,3.717-4.135
	S129.882,117.99,127.833,117.99z"/>
</svg>
